<?xml version="1.0" encoding="UTF-8"?>
<svg id="Layer_2" data-name="Layer 2" xmlns="http://www.w3.org/2000/svg" xmlns:xlink="http://www.w3.org/1999/xlink" viewBox="0 0 90.68 90.68">
  <defs>
    <style>
      .cls-1 {
        fill: url(#linear-gradient);
      }
    </style>
    <linearGradient id="linear-gradient" x1="49.6" y1="49.98" x2="82.57" y2="85.91" gradientUnits="userSpaceOnUse">
      <stop offset=".1" stop-color="#fff"/>
      <stop offset=".98" stop-color="#bcbec0"/>
    </linearGradient>
  </defs>
  <g id="Layer_1-2" data-name="Layer 1">
    <path class="cls-1" d="M70.93,0H19.76C8.85,0,0,8.85,0,19.76v51.17c0,10.91,8.85,19.76,19.76,19.76h26.81c1.8,0,3.52-.71,4.79-1.98l37.6-37.6c1.11-1.11,1.73-2.61,1.73-4.18v-27.17c0-10.91-8.85-19.76-19.76-19.76ZM73.65,32.95c0,1.64-1.33,2.96-2.96,2.96h-13.42c-1.64,0-2.96,1.33-2.96,2.96v23.97c0,.5-.2.99-.56,1.34l-8.98,8.98c-.32.32-.75.5-1.2.5h-4.25c-1.64,0-2.96-1.33-2.96-2.96v-31.82c0-1.64-1.33-2.96-2.96-2.96h-13.41c-1.64,0-2.96-1.33-2.96-2.96v-12.95c0-1.64,1.33-2.96,2.96-2.96h50.69c1.64,0,2.96,1.33,2.96,2.96v12.95Z"/>
  </g>
</svg>